<?xml version="1.0" standalone="no"?>
<!DOCTYPE svg PUBLIC "-//W3C//DTD SVG 20010904//EN"
 "http://www.w3.org/TR/2001/REC-SVG-20010904/DTD/svg10.dtd">
<svg version="1.0" xmlns="http://www.w3.org/2000/svg"
 width="480.000000pt" height="480.000000pt" viewBox="0 0 480.000000 480.000000"
 preserveAspectRatio="xMidYMid meet">
<metadata>
Created by potrace 1.11, written by Peter Selinger 2001-2013
</metadata>
<g transform="translate(0.000000,480.000000) scale(0.100000,-0.100000)"
fill="#000000" stroke="none">
<path d="M0 2400 l0 -2400 2400 0 2400 0 0 2400 0 2400 -2400 0 -2400 0 0
-2400z m1790 715 l0 -125 -257 -2 -258 -3 -3 -767 -2 -768 -150 0 -150 0 0
770 0 770 -255 0 -255 0 0 125 0 125 665 0 665 0 0 -125z m698 -527 c-4 -633
-5 -655 -26 -731 -36 -129 -77 -204 -156 -283 -121 -120 -231 -159 -436 -152
-177 6 -170 -1 -170 163 0 74 2 135 5 135 3 0 34 -9 68 -21 48 -16 78 -20 132
-17 110 7 175 50 226 150 46 90 49 135 49 791 l0 617 156 0 155 0 -3 -652z
m1503 -238 c181 -487 329 -888 329 -892 0 -5 -73 -8 -163 -8 l-163 0 -80 225
-79 225 -352 0 -351 0 -28 -82 c-15 -46 -49 -147 -76 -225 l-50 -143 -165 0
c-153 0 -165 1 -158 18 5 14 626 1669 656 1750 9 22 10 22 180 20 l171 -3 329
-885z"/>
<path d="M3417 2751 c-37 -113 -99 -295 -136 -403 l-69 -198 269 0 c148 0 269
2 269 5 0 2 -57 167 -126 367 -69 199 -129 379 -132 399 -6 32 -13 16 -75
-170z"/>
</g>
</svg>
